<?xml version="1.0" encoding="UTF-8" standalone="no"?>
<!-- Created with Inkscape (http://www.inkscape.org/) -->

<svg
   xmlns:dc="http://purl.org/dc/elements/1.1/"
   xmlns:cc="http://creativecommons.org/ns#"
   xmlns:rdf="http://www.w3.org/1999/02/22-rdf-syntax-ns#"
   xmlns:svg="http://www.w3.org/2000/svg"
   xmlns="http://www.w3.org/2000/svg"
   xmlns:sodipodi="http://sodipodi.sourceforge.net/DTD/sodipodi-0.dtd"
   xmlns:inkscape="http://www.inkscape.org/namespaces/inkscape"
   width="32.000004"
   height="17.030001"
   viewBox="0 0 8.4666672 4.5058545"
   version="1.1"
   id="svg1236"
   inkscape:version="0.92.4 (5da689c313, 2019-01-14)"
   sodipodi:docname="coding.svg">
  <defs
     id="defs1230">
    <linearGradient
       gradientUnits="userSpaceOnUse"
       y2="347.69"
       x2="597.75"
       y1="725.44"
       x1="597.75"
       id="dff037aa-d578-4bab-81e7-399360663117"
       gradientTransform="matrix(0.00813104,0,0,0.00813104,-0.64525643,291.08798)">
      <stop
         id="stop1114"
         stop-opacity="0.25"
         stop-color="gray"
         offset="0" />
      <stop
         id="stop1116"
         stop-opacity="0.12"
         stop-color="gray"
         offset="0.54" />
      <stop
         id="stop1118"
         stop-opacity="0.1"
         stop-color="gray"
         offset="1" />
    </linearGradient>
  </defs>
  <sodipodi:namedview
     id="base"
     pagecolor="#ffffff"
     bordercolor="#666666"
     borderopacity="1.0"
     inkscape:pageopacity="0.0"
     inkscape:pageshadow="2"
     inkscape:zoom="21.397963"
     inkscape:cx="15.241886"
     inkscape:cy="8.3853712"
     inkscape:document-units="mm"
     inkscape:current-layer="layer1"
     showgrid="false"
     units="px"
     inkscape:window-width="1366"
     inkscape:window-height="715"
     inkscape:window-x="-8"
     inkscape:window-y="-8"
     inkscape:window-maximized="1"
     fit-margin-top="0"
     fit-margin-left="0"
     fit-margin-right="0"
     fit-margin-bottom="0" />
  <metadata
     id="metadata1233">
    <rdf:RDF>
      <cc:Work
         rdf:about="">
        <dc:format>image/svg+xml</dc:format>
        <dc:type
           rdf:resource="http://purl.org/dc/dcmitype/StillImage" />
        <dc:title />
      </cc:Work>
    </rdf:RDF>
  </metadata>
  <g
     inkscape:label="Layer 1"
     inkscape:groupmode="layer"
     id="layer1"
     transform="translate(5.1565896e-5,-292.49414)">
    <path
       style="opacity:1;fill:#f9f9f9;stroke-width:0.00813104"
       inkscape:connector-curvature="0"
       d="m 7.8176941,296.05702 q -0.014148,0.0305 -0.028215,0.0602 -0.021953,0.0461 -0.043338,0.0904 c -0.00634,0.0131 -0.012685,0.0259 -0.018864,0.0388 -0.069927,0.14287 -0.1352195,0.26922 -0.1906731,0.37314 a 0.59527355,0.59527355 0 0 1 -0.5188418,0.31467 l -1.2330725,0.0134 H 5.77168 l -0.1057033,10e-4 -0.090418,9.8e-4 -0.2772683,0.003 h -0.011221 l -0.1411547,0.002 h -0.00431 l -0.8700216,0.009 -0.7765955,0.008 -0.090336,9.8e-4 -0.5610417,0.006 h -6.507e-4 l -0.3638641,0.004 h -0.0039 l -1.1505425,0.0124 -0.34418686,0.004 a 0.71610082,0.71610082 0 0 1 -0.21685493,-0.0311 0.70244067,0.70244067 0 0 1 -0.31784233,-0.20124 c -0.1478225,-0.16287 -0.2555584,-0.35289 -0.3279247,-0.55909 q -0.0156934,-0.0446 -0.02927172,-0.0904 c -0.25051777,-0.84685 0.05488426,-1.93942 0.60454242,-2.67056 q 0.0345574,-0.0459 0.0702523,-0.0894 l 5.7209e-4,-6.5e-4 c 0.16904448,-0.20751 0.35857893,-0.38086 0.56047243,-0.50413 0.3577663,-0.2188 0.7541541,-0.28044 1.1440374,-0.0968 0.3298766,0.15547 0.6378805,0.22857 0.9364522,0.24841 0.030166,0.002 0.060333,0.003 0.090336,0.004 0.6848777,0.0215 1.3267422,-0.22523 2.0804896,-0.38452 0.030004,-0.006 0.060089,-0.0126 0.090418,-0.0185 0.5377052,-0.107 1.1341985,-0.16343 1.8435507,-0.0448 a 1.5374986,1.5374986 0 0 1 0.2175869,0.052 q 0.046916,0.0151 0.090417,0.0325 c 0.3385764,0.13774 0.5232324,0.39224 0.6016971,0.71114 q 0.01114,0.0444 0.019271,0.0903 c 0.1391221,0.76708 -0.2683246,1.85518 -0.6209678,2.61047 z"
       id="path1125" />
    <g
       style="opacity:1;fill:#cccccc"
       id="g1139"
       transform="matrix(0.00813104,0,0,0.00813104,-1.3946156e-4,292.49392)">
      <path
         style="fill:#cccccc"
         inkscape:connector-curvature="0"
         d="m 242.24,217 v 509.62 l -42.33,0.46 a 88.07,88.07 0 0 1 -26.67,-3.82 V 279 h 0.07 c 20.79,-25.55 44.1,-46.87 68.93,-62 z"
         transform="translate(-79.34,-172.91)"
         id="path1127" />
      <path
         style="fill:#cccccc"
         inkscape:connector-curvature="0"
         d="M 1117.24,290.08 H 164.6 q 4.25,-5.64 8.64,-11 V 279 h 941.63 q 1.37,5.43 2.37,11.08 z"
         transform="translate(-79.34,-172.91)"
         id="path1129" />
      <path
         style="fill:#cccccc"
         inkscape:connector-curvature="0"
         d="m 1040.82,191.51 v 427 h -3.47 q -2.7,5.67 -5.33,11.12 c -0.78,1.61 -1.56,3.19 -2.32,4.77 V 187.47 q 5.77,1.86 11.12,4.04 z"
         transform="translate(-79.34,-172.91)"
         id="path1131" />
      <path
         style="fill:#cccccc"
         inkscape:connector-curvature="0"
         d="m 776.21,186.58 v 534.25 l -11.12,0.12 V 188.86 c 3.69,-0.78 7.39,-1.55 11.12,-2.28 z"
         transform="translate(-79.34,-172.91)"
         id="path1133" />
      <path
         style="fill:#cccccc"
         inkscape:connector-curvature="0"
         d="m 509.22,236.15 v 487.58 l -11.11,0.12 V 235.62 c 3.71,0.24 7.42,0.38 11.11,0.53 z"
         transform="translate(-79.34,-172.91)"
         id="path1135" />
      <path
         style="fill:#cccccc"
         inkscape:connector-curvature="0"
         d="m 1037.35,618.52 q -2.7,5.67 -5.33,11.12 H 93.85 q -1.93,-5.49 -3.6,-11.12 z"
         transform="translate(-79.34,-172.91)"
         id="path1137" />
    </g>
    <rect
       style="fill:#3f3d56;stroke-width:0.00813104"
       x="1.7203891"
       y="294.6554"
       width="0.15448979"
       height="0.46883586"
       id="rect1141" />
    <rect
       style="fill:#3f3d56;stroke-width:0.00813104"
       x="5.8780336"
       y="294.63101"
       width="0.15448979"
       height="0.49599355"
       id="rect1143" />
    <polygon
       style="fill:#65617d"
       points="710.63,505.96 726.1,505.83 728.1,505.81 731.58,505.79 732.23,505.79 806.94,505.15 863.1,533.65 863.1,546.65 711.18,548.05 709.56,548.08 651.82,548.61 650.44,548.63 632.89,548.78 632.37,548.78 525.39,549.77 349.78,551.4 349.63,551.4 304.98,551.82 304.5,551.83 106.1,553.65 106.1,538.65 152.75,510.65 246.35,509.87 248.35,509.86 249.01,509.85 251.01,509.82 295.95,509.45 297.96,509.44 298.6,509.43 300.6,509.42 315.01,509.3 315.39,509.29 350.94,508.99 351.23,508.99 628.63,506.65 635.42,506.6 636.1,506.6 641.28,506.55 678.93,506.24 680.93,506.21 682.78,506.19 683.74,506.19 695.45,506.1 697.77,506.07 700.88,506.05 "
       id="polygon1145"
       transform="matrix(0.00813104,0,0,0.00813104,-1.3946156e-4,292.49392)" />
    <polygon
       style="opacity:0.2"
       points="710.63,505.96 726.1,505.83 728.1,505.81 731.58,505.79 732.23,505.79 806.94,505.15 863.1,533.65 863.1,546.65 711.18,548.05 709.56,548.08 651.82,548.61 650.44,548.63 632.89,548.78 632.37,548.78 525.39,549.77 349.78,551.4 349.63,551.4 304.98,551.82 304.5,551.83 106.1,553.65 106.1,538.65 152.75,510.65 246.35,509.87 248.35,509.86 249.01,509.85 251.01,509.82 295.95,509.45 297.96,509.44 298.6,509.43 300.6,509.42 315.01,509.3 315.39,509.29 350.94,508.99 351.23,508.99 628.63,506.65 635.42,506.6 636.1,506.6 641.28,506.55 678.93,506.24 680.93,506.21 682.78,506.19 683.74,506.19 695.45,506.1 697.77,506.07 700.88,506.05 "
       id="polygon1147"
       transform="matrix(0.00813104,0,0,0.00813104,-1.3946156e-4,292.49392)" />
    <path
       style="fill:#3f3d56;stroke-width:0.00813104"
       inkscape:connector-curvature="0"
       d="m 2.4074616,296.42658 v 0.19913 a 0.04984328,0.04984328 0 0 1 -0.028459,0.045 0.04878625,0.04878625 0 0 1 -0.020327,0.005 l -0.2837734,0.006 a 0.04878625,0.04878625 0 0 1 -0.021954,-0.005 0.04976197,0.04976197 0 0 1 -0.029028,-0.0453 v -0.20515 z"
       id="path1149" />
    <path
       style="opacity:0.1;stroke-width:0.00813104"
       inkscape:connector-curvature="0"
       d="m 2.4074616,296.42658 v 0.19913 a 0.04984328,0.04984328 0 0 1 -0.028459,0.045 0.04878625,0.04878625 0 0 1 -0.020327,0.005 l -0.2837734,0.006 a 0.04878625,0.04878625 0 0 1 -0.021954,-0.005 0.04976197,0.04976197 0 0 1 -0.029028,-0.0453 v -0.20515 z"
       id="path1151" />
    <path
       style="fill:#3f3d56;stroke-width:0.00813104"
       inkscape:connector-curvature="0"
       d="m 2.4237237,296.42658 v 0.19913 a 0.04984328,0.04984328 0 0 1 -0.028459,0.045 0.04878625,0.04878625 0 0 1 -0.020328,0.005 l -0.2837729,0.006 a 0.04878625,0.04878625 0 0 1 -0.021954,-0.005 0.04976197,0.04976197 0 0 1 -0.029028,-0.0453 v -0.20515 z"
       id="path1153" />
    <rect
       style="fill:#3f3d56;stroke-width:0.00813104"
       x="5.5365305"
       y="296.42657"
       width="0.3835412"
       height="0.2561278"
       id="rect1155" />
    <rect
       style="opacity:0.1;stroke-width:0.00813104"
       x="5.5365305"
       y="296.42657"
       width="0.3835412"
       height="0.2561278"
       id="rect1157" />
    <rect
       style="fill:#3f3d56;stroke-width:0.00813104"
       x="5.520268"
       y="296.42657"
       width="0.3835412"
       height="0.2561278"
       id="rect1159" />
    <polygon
       style="opacity:0.1"
       points="211.6,265.82 230.6,265.82 230.6,271.55 211.6,271.06 "
       id="polygon1161"
       transform="matrix(0.00813104,0,0,0.00813104,-1.3946156e-4,292.49392)" />
    <path
       style="fill:#65617d;stroke-width:0.00813104"
       inkscape:connector-curvature="0"
       d="m 2.8917464,293.3428 -0.1856313,1.33349 a 0.03496348,0.03496348 0 0 1 -0.035533,0.0302 l -1.4863543,-0.0385 -0.028215,-7.3e-4 a 0.03496348,0.03496348 0 0 1 -0.033825,-0.0396 l 0.2083986,-1.39594 a 0.03496348,0.03496348 0 0 1 0.036915,-0.0295 l 1.4917208,0.10098 a 0.03488217,0.03488217 0 0 1 0.032524,0.0397 z"
       id="path1163" />
    <polygon
       style="fill:#2b6cb0;fill-opacity:1"
       points="345.26,109.82 175.93,99.16 156.6,250.49 324.6,255.82 "
       id="polygon1165"
       transform="matrix(0.00813104,0,0,0.00813104,-1.3946156e-4,292.49392)" />
    <rect
       style="fill:#65617d;stroke-width:0.00813104"
       x="3.1270595"
       y="293.28116"
       width="1.6641802"
       height="1.4093534"
       rx="0.043338452"
       ry="0.043338452"
       id="rect1167" />
    <rect
       style="fill:#2b6cb0;stroke-width:0.00813104;fill-opacity:1"
       x="3.2056053"
       y="293.37607"
       width="1.5123737"
       height="1.1735532"
       id="rect1169" />
    <polygon
       style="opacity:0.1"
       points="722.93,262.82 741.93,262.82 741.93,266.61 722.93,267 "
       id="polygon1171"
       transform="matrix(0.00813104,0,0,0.00813104,-1.3946156e-4,292.49392)" />
    <path
       style="fill:#65617d;stroke-width:0.00813104"
       inkscape:connector-curvature="0"
       d="m 6.7295981,294.6049 a 0.02504361,0.02504361 0 0 1 -0.024393,0.0267 l -1.5221311,0.0315 a 0.02504361,0.02504361 0 0 1 -0.02545,-0.0227 l -0.1308284,-1.36016 a 0.02504361,0.02504361 0 0 1 0.023742,-0.0274 l 1.5105849,-0.0751 0.016262,-8.2e-4 a 0.0249623,0.0249623 0 0 1 0.026182,0.0228 z"
       id="path1173" />
    <polygon
       style="fill:#2b6cb0;fill-opacity:1"
       points="644.6,250.82 628.93,103.16 798.6,94.82 812.93,246.82 "
       id="polygon1175"
       transform="matrix(0.00813104,0,0,0.00813104,-1.3946156e-4,292.49392)" />
    <path
       style="opacity:0.1;stroke-width:0.00813104"
       inkscape:connector-curvature="0"
       d="m 6.7295981,294.6049 a 0.02504361,0.02504361 0 0 1 -0.024393,0.0267 l -0.144082,-1.45391 0.016262,-8.2e-4 a 0.0249623,0.0249623 0 0 1 0.026182,0.0228 z"
       id="path1177" />
    <path
       style="opacity:0.1;stroke-width:0.00813104"
       inkscape:connector-curvature="0"
       d="m 1.3677454,293.20205 -0.1835174,1.46587 -0.028215,-7.3e-4 a 0.03496348,0.03496348 0 0 1 -0.033825,-0.0396 l 0.2083986,-1.39594 a 0.03496348,0.03496348 0 0 1 0.037159,-0.0296 z"
       id="path1179" />
    <rect
       style="opacity:0.1;stroke-width:0.00813104"
       x="1.7203891"
       y="294.98535"
       width="0.15448979"
       height="0.13887818"
       id="rect1181" />
    <polygon
       style="opacity:0.1"
       points="250.93,483.65 298.1,483.65 298.1,488.62 250.93,489.88 "
       id="polygon1183"
       transform="matrix(0.00813104,0,0,0.00813104,-1.3946156e-4,292.49392)" />
    <path
       style="fill:#65617d;stroke-width:0.00813104"
       inkscape:connector-curvature="0"
       d="m 3.100633,295.03373 v 1.36764 a 0.03252417,0.03252417 0 0 1 -0.031304,0.0321 l -1.5583139,0.0415 H 1.510622 a 0.03252417,0.03252417 0 0 1 -0.032118,-0.0321 v -1.40911 a 0.03252417,0.03252417 0 0 1 0.032118,-0.0321 h 1.5579074 a 0.03252417,0.03252417 0 0 1 0.032118,0.0321 z"
       id="path1185" />
    <path
       style="opacity:0.1;stroke-width:0.00813104"
       inkscape:connector-curvature="0"
       d="m 1.5110147,295.00161 v 1.47335 H 1.510622 a 0.03252417,0.03252417 0 0 1 -0.032118,-0.0321 v -1.40911 a 0.03252417,0.03252417 0 0 1 0.032118,-0.0321 z"
       id="path1187" />
    <polygon
       style="fill:#ebf8ff;fill-opacity:1"
       points="194.6,471.4 194.6,319.15 372.1,319.15 372.1,467.4 "
       id="polygon1189"
       transform="matrix(0.00813104,0,0,0.00813104,-1.3946156e-4,292.49392)" />
    <rect
       style="opacity:0.1;stroke-width:0.00813104"
       x="5.8780336"
       y="294.98535"
       width="0.15448979"
       height="0.14164275"
       id="rect1191" />
    <polygon
       style="opacity:0.1"
       points="678.93,483.65 726.1,483.65 726.1,490.06 678.93,488.8 "
       id="polygon1193"
       transform="matrix(0.00813104,0,0,0.00813104,-1.3946156e-4,292.49392)" />
    <path
       style="fill:#65617d;stroke-width:0.00813104"
       inkscape:connector-curvature="0"
       d="m 6.4099666,295.03373 v 1.40911 a 0.03252417,0.03252417 0 0 1 -0.032524,0.0321 v 0 l -1.5586398,-0.0415 a 0.03252417,0.03252417 0 0 1 -0.031304,-0.0321 v -1.36764 a 0.03252417,0.03252417 0 0 1 0.032118,-0.0321 h 1.5579073 a 0.03252417,0.03252417 0 0 1 0.032443,0.0321 z"
       id="path1195" />
    <path
       style="opacity:0.1;stroke-width:0.00813104"
       inkscape:connector-curvature="0"
       d="m 6.4099666,295.03373 v 1.40911 a 0.03252417,0.03252417 0 0 1 -0.032524,0.0321 v 0 -1.47335 0 a 0.03252417,0.03252417 0 0 1 0.032524,0.0321 z"
       id="path1197" />
    <polygon
       style="fill:#ebf8ff;fill-opacity:1"
       points="775.6,471.4 775.6,319.15 598.1,319.15 598.1,467.4 "
       id="polygon1199"
       transform="matrix(0.00813104,0,0,0.00813104,-1.3946156e-4,292.49392)" />
    <path
       style="fill:#65617d;stroke-width:0.00813104"
       inkscape:connector-curvature="0"
       d="m 4.7471687,295.03373 v 1.36764 a 0.03252417,0.03252417 0 0 1 -0.031304,0.0321 l -1.558314,0.0415 v 0 a 0.03252417,0.03252417 0 0 1 -0.032524,-0.0321 v -1.40911 a 0.03252417,0.03252417 0 0 1 0.032118,-0.0321 H 4.715052 a 0.03252417,0.03252417 0 0 1 0.032118,0.0321 z"
       id="path1201" />
    <polygon
       style="fill:#ebf8ff;fill-opacity:1"
       points="397.1,471.4 397.1,319.15 574.6,319.15 574.6,467.4 "
       id="polygon1203"
       transform="matrix(0.00813104,0,0,0.00813104,-1.3946156e-4,292.49392)" />
    <polygon
       style="opacity:0.1"
       points="304.98,551.82 304.5,551.83 106.1,553.65 106.1,538.65 308.61,537.32 309.09,537.32 350.08,537.04 350.27,537.04 633.35,535.17 633.64,535.17 633.81,535.16 634.28,535.16 639.07,535.13 640.53,535.13 715.02,534.63 719.42,534.61 720.4,534.6 863.1,533.65 863.1,546.65 711.18,548.05 709.56,548.08 651.82,548.61 650.44,548.63 632.89,548.78 632.37,548.78 525.39,549.77 349.78,551.4 349.63,551.4 "
       id="polygon1205"
       transform="matrix(0.00813104,0,0,0.00813104,-1.3946156e-4,292.49392)" />
    <circle
       style="fill:#fbbebe;stroke-width:0.00813104"
       cx="3.9617915"
       cy="294.70685"
       r="0.41736639"
       id="circle1207" />
    <path
       style="fill:url(#dff037aa-d578-4bab-81e7-399360663117);stroke-width:0.00813104"
       inkscape:connector-curvature="0"
       d="m 2.4749493,296.98372 c 0,-9e-4 5.048e-4,-0.002 8.133e-4,-0.003 0.00813,-0.0292 0.022604,-0.0785 0.033418,-0.11798 0.00139,-0.005 0.00268,-0.01 0.0039,-0.0142 0.011952,-0.0445 0.035207,-0.14863 0.048136,-0.2136 0.00455,-0.0229 0.00813,-0.0407 0.00886,-0.0496 0.00163,-0.0137 0.026101,-0.0725 0.053828,-0.1401 0.019433,-0.0475 0.040655,-0.0994 0.056185,-0.1431 a 0.49908331,0.49908331 0 0 0 0.023824,-0.0801 0.04146831,0.04146831 0 0 0 0,-0.0173 0.119445,0.119445 0 0 1 -0.0039,-0.0285 v 0 c -0.00187,-0.0504 0.013172,-0.1301 0.036427,-0.16352 0.028459,-0.0407 0.048786,-0.19238 0.048786,-0.19238 0,0 0.042119,0.006 0.048786,-0.0287 a 0.0500059,0.0500059 0 0 0 8.133e-4,-0.0114 0.06025102,0.06025102 0 0 0 -7.291e-4,-0.009 c -0.00724,-0.0507 0.1196888,-0.10473 0.1910791,-0.11635 a 0.15993758,0.15993758 0 0 1 0.024393,-0.002 0.22148956,0.22148956 0 0 0 0.050819,-0.0117 q 0.011384,-0.003 0.024393,-0.008 c 0.029922,-0.0101 0.065699,-0.0234 0.1036707,-0.038 0.1427813,-0.0554 0.315647,-0.1301 0.315647,-0.1301 0.00122,-0.006 0.0026,-0.0113 0.00414,-0.0168 a 0.22531115,0.22531115 0 0 1 0.1329424,-0.15392 v 0 c 0,-0.005 0,-0.0108 0,-0.0163 0,-0.0281 -0.00122,-0.0569 -0.00244,-0.0857 0,-0.006 -5.048e-4,-0.0112 -8.133e-4,-0.0168 0,-0.002 0,-0.003 0,-0.005 0,-0.002 0,-0.003 0,-0.004 0,-0.006 -5.721e-4,-0.0114 -8.974e-4,-0.017 l -0.00146,-10e-4 a 0.13343039,0.13343039 0 0 1 -0.031711,-0.0342 0.124161,0.124161 0 0 1 -0.011546,-0.0244 c -0.010164,-0.0276 -0.012522,-0.0583 -0.019352,-0.0874 l -0.00146,-0.006 a 0.6830075,0.6830075 0 0 0 -0.032524,-0.086 c -0.017969,-0.0441 -0.031792,-0.0894 -0.045534,-0.13538 q -0.012522,-0.0417 -0.025287,-0.0836 l -0.012847,-0.0426 c -0.00244,-0.008 -0.00488,-0.0163 -0.00675,-0.0244 v 0 a 0.10789892,0.10789892 0 0 1 -0.00211,-0.0114 0.08131041,0.08131041 0 0 1 0.00195,-0.0375 0.26092511,0.26092511 0 0 1 0.010733,-0.0244 0.0639913,0.0639913 0 0 0 0.00407,-0.0112 v 0 a 0.02439312,0.02439312 0 0 0 6.506e-4,-0.003 0.04594038,0.04594038 0 0 0 8.974e-4,-0.009 0.15009902,0.15009902 0 0 0 -0.00423,-0.0316 5.6917282e-4,5.6917282e-4 0 0 1 0,-3.9e-4 0.02081547,0.02081547 0 0 0 -3.926e-4,-0.002 0.20717894,0.20717894 0 0 1 -0.00293,-0.0244 0.23132812,0.23132812 0 0 1 0.028214,-0.1266 l 0.00154,-0.003 a 0.20506486,0.20506486 0 0 1 0.014961,-0.0226 v 0 c 0.00252,-0.003 0.00512,-0.007 0.00813,-0.01 -0.011384,0.0109 -0.030085,0.006 -0.040655,-0.006 a 0.02935306,0.02935306 0 0 1 -0.00447,-0.006 0.03097927,0.03097927 0 0 1 -0.00187,-0.004 c -3.926e-4,-9.8e-4 -7.292e-4,-0.002 -0.00105,-0.003 -0.00569,-0.0199 0.00423,-0.0412 0.017238,-0.0573 a 0.15034295,0.15034295 0 0 1 0.046672,-0.0382 v 0 a 0.0312232,0.0312232 0 0 1 0.00325,-0.002 0.13920343,0.13920343 0 0 1 0.021466,-0.009 v 0 a 0.12245348,0.12245348 0 0 1 0.013254,-0.004 l -0.030166,-0.003 -0.012196,-0.001 a 0.11781879,0.11781879 0 0 1 0.1057032,-0.0887 h 0.00878 a 0.09537712,0.09537712 0 0 1 0.012766,10e-4 0.03610182,0.03610182 0 0 1 -0.021547,-0.0352 0.11716831,0.11716831 0 0 0 0.074724,0.0249 h 0.00309 a 0.24393124,0.24393124 0 0 1 -0.00277,-0.0266 v 0 a 0.26986926,0.26986926 0 0 1 0,-0.0363 0.06862599,0.06862599 0 0 0 0.055128,0.0184 l -0.016912,-0.0236 a 0.07716358,0.07716358 0 0 0 0.05334,0.0167 l 0.0039,-4e-4 a 0.05691729,0.05691729 0 0 0 0.00968,-0.002 h 7.292e-4 c -0.00154,-0.002 -0.00293,-0.004 -0.00431,-0.006 l -5.047e-4,-9.8e-4 a 0.07862717,0.07862717 0 0 1 -0.00813,-0.017 0.05358356,0.05358356 0 0 1 -0.00195,-0.007 v 0 a 0.07114661,0.07114661 0 0 1 0.00366,-0.0443 c 0.026263,0.022 0.055047,0.052 0.089441,0.0293 0.034394,-0.0227 0.035533,-0.0643 0.089442,-0.0601 a 0.08293662,0.08293662 0 0 1 0.068382,0.0498 0.05488453,0.05488453 0 0 1 0.062365,-0.0142 0.05569763,0.05569763 0 0 1 0.031548,0.056 c 0.022361,-0.006 0.046429,-0.0111 0.067894,-0.003 0.021466,0.008 0.035288,0.0359 0.023092,0.0541 a 0.01162739,0.01162739 0 0 1 -0.00114,0.002 c -0.010001,0.0129 -0.032118,0.02 -0.029759,0.0363 l 0.00342,0.002 0.01057,0.008 q 0.062203,0.0449 0.1211527,0.0943 c 0.020165,0.0169 0.041631,0.0372 0.043013,0.0637 a 0.0702522,0.0702522 0 0 1 -0.00195,0.0193 v 0 c -0.0013,0.006 -0.00309,0.0127 -0.00447,0.019 a 0.15863662,0.15863662 0 0 0 -0.00277,0.0492 v 0 c 5.665e-4,0.005 0.0013,0.01 0.0022,0.0143 0.01244,0.0629 0.06269,0.11473 0.06765,0.17888 v 0.005 a 0.14456991,0.14456991 0 0 1 -5.665e-4,0.0206 c -0.00374,0.039 -0.021791,0.0765 -0.036427,0.11383 -8.918e-4,0.002 -0.00179,0.005 -0.0026,0.007 -0.028215,0.0732 -0.044477,0.15116 -0.056917,0.22897 a 0.8152182,0.8152182 0 0 1 -0.016262,0.0821 0.21734273,0.21734273 0 0 1 -0.041387,0.0848 0.13188549,0.13188549 0 0 1 -0.02732,0.0244 0.15180654,0.15180654 0 0 1 -0.021547,0.0115 c 0,0 0,0 0,5e-4 8.974e-4,0.005 0.00163,0.01 0.00252,0.0149 5.048e-4,0.003 8.974e-4,0.005 0.00139,0.008 v 0 a 0.00113835,0.00113835 0 0 0 0,5e-4 c 0.00683,0.0385 0.014636,0.0761 0.022848,0.11188 l 0.00414,0.0178 c 0.1024508,0.037 0.1145663,0.11278 0.1152983,0.14181 a 0.07838324,0.07838324 0 0 1 0,0.0116 c 0,0 0.1544896,0.004 0.2154723,0.0488 a 0.16538538,0.16538538 0 0 0 0.036671,0.0187 0.67487643,0.67487643 0 0 0 0.075212,0.0235 c 0.013091,0.003 0.026751,0.007 0.040655,0.01 0.024393,0.006 0.05025,0.0111 0.075212,0.0163 0.066593,0.0134 0.1292832,0.0244 0.1610761,0.0325 0.075862,0.0192 0.2493786,0.18555 0.2493786,0.18555 0,0 0.020328,0.16782 0.040655,0.1923 0.020327,0.0245 0.056917,0.1105 0.056917,0.1105 l 0.134487,0.23913 0.056917,0.10058 h 0.03659 c 0.00504,0 0.014961,0.007 0.026101,0.0171 0.00968,0.009 0.020409,0.0194 0.029841,0.0291 l 0.015612,0.0167 0.00976,0.0108 c 0,0 0.059113,10e-4 0.075131,0.0482 0.048136,-0.001 0.1072485,0.002 0.1486352,0.0203 a 0.11497292,0.11497292 0 0 1 0.016262,0.009 0.07057744,0.07057744 0 0 1 0.033581,0.046 0.06781289,0.06781289 0 0 1 0.00146,0.0117 c 0,0.005 0,0.009 0,0.0138 -0.00293,0.0616 -0.043013,0.11278 -0.079847,0.14725 l 0.0026,0.005 c 0,0 -0.00122,0.003 -0.00358,0.008 -6.506e-4,0.002 -0.00146,0.003 -0.00236,0.005 v 0 c -0.0048,0.0102 -0.01244,0.0256 -0.022441,0.0436 a 0.51477622,0.51477622 0 0 1 -0.077814,0.10709 l -0.00236,0.002 -0.4694867,0.004 -0.00138,-0.002 -0.091068,-0.10863 -0.04529,-0.054 -0.00138,-0.002 -0.0013,0.0129 -0.00439,0.0431 -0.01057,0.10416 -5.665e-4,0.005 v 10e-4 l -0.00122,0.012 8.974e-4,-0.012 h -0.00236 l -0.8700216,0.008 -1.4279735,0.0158 v 0.007 h -0.00114 v -0.007 l -0.3638642,0.004 z"
       id="path1209" />
    <path
       style="fill:#fbbebe;stroke-width:0.00813104"
       inkscape:connector-curvature="0"
       d="m 4.3792393,295.56062 c 0,0 -0.8090389,0.0976 -0.7317935,0 0.027971,-0.0353 0.035695,-0.13985 0.03415,-0.25897 -5.048e-4,-0.0362 -0.00179,-0.0737 -0.00366,-0.11099 -0.00894,-0.17888 -0.030491,-0.3537 -0.030491,-0.3537 0,0 0.7074004,-0.33337 0.6260897,-0.0691 -0.032524,0.10676 -0.021872,0.25669 0.00284,0.39744 0.00724,0.0411 0.015612,0.0813 0.024393,0.11953 a 2.802526,2.802526 0 0 0 0.078465,0.2758 z"
       id="path1211" />
    <path
       style="opacity:0.1;stroke-width:0.00813104"
       inkscape:connector-curvature="0"
       d="m 4.3792393,295.56062 c 0,0 -0.8090389,0.0976 -0.7317935,0 0.027971,-0.0353 0.035695,-0.13985 0.03415,-0.25897 0.123348,-0.0527 0.2802769,-0.0134 0.2802769,-0.0134 0.1652227,-0.0329 0.2711705,-0.0265 0.3389017,-0.003 a 2.802526,2.802526 0 0 0 0.078465,0.2758 z"
       id="path1213" />
    <path
       style="fill:#3182ce;stroke-width:0.00813104;fill-opacity:1"
       inkscape:connector-curvature="0"
       d="m 2.8436107,296.98656 v -0.007 l 1.4279735,-0.0155 0.8700216,-0.008 h 0.00244 l -8.975e-4,0.012 0.00122,-0.012 h 0.00154 v -10e-4 l 0.01114,-0.10936 0.00423,-0.0414 0.0013,-0.0129 0.00114,-0.0108 0.05025,-0.16758 0.05025,-0.16734 0.042281,-0.14091 0.06456,-0.21531 c 0,0 -0.036589,-0.0854 -0.056917,-0.10977 -0.020327,-0.0244 -0.040655,-0.19108 -0.040655,-0.19108 0,0 -0.1735163,-0.1653 -0.2493786,-0.18433 -0.031792,-0.008 -0.094564,-0.0189 -0.1612387,-0.0325 -0.024962,-0.005 -0.050575,-0.0104 -0.075212,-0.0163 -0.013904,-0.003 -0.027564,-0.007 -0.040655,-0.01 a 0.71479986,0.71479986 0 0 1 -0.075212,-0.0233 0.16831255,0.16831255 0 0 1 -0.03659,-0.0186 c -0.059763,-0.0438 -0.2095371,-0.0488 -0.2153097,-0.0488 v 0 a 0.00341504,0.00341504 0 0 1 0,-5.8e-4 v -7.3e-4 a 0.08342448,0.08342448 0 0 0 0,-0.0102 c 0,-0.003 0,-0.007 -7.291e-4,-0.0114 0,-10e-4 0,-0.003 -5.721e-4,-0.004 -3.926e-4,-0.003 -8.974e-4,-0.006 -0.00163,-0.009 a 0.04065521,0.04065521 0 0 0 -9.759e-4,-0.004 0.13993522,0.13993522 0 0 0 -0.010164,-0.0284 c -5.721e-4,-10e-4 -0.0013,-0.003 -0.00195,-0.004 a 0.1483915,0.1483915 0 0 0 -0.013823,-0.0214 c -0.00105,-10e-4 -0.00219,-0.003 -0.00342,-0.004 a 0.15920579,0.15920579 0 0 0 -0.022117,-0.0215 c -0.00219,-0.002 -0.00447,-0.003 -0.00683,-0.005 a 0.03797196,0.03797196 0 0 0 -0.00414,-0.003 l -0.00724,-0.005 -0.00675,-0.004 c -0.00594,-0.003 -0.012197,-0.006 -0.019027,-0.009 -0.00211,-9.7e-4 -0.00439,-0.002 -0.00667,-0.003 -0.00228,-9e-4 -0.00585,-0.002 -0.00886,-0.003 h -5.048e-4 l -0.0061,-0.002 c -0.00463,-0.002 -0.00935,-0.003 -0.014311,-0.004 l -0.00756,-0.002 -0.00813,-0.002 -0.00813,-0.002 c -0.00813,-0.002 -0.016831,-0.003 -0.025938,-0.004 l -0.00927,-0.001 -0.00951,-9.8e-4 -0.00984,-8.1e-4 -0.013985,-8.2e-4 -0.016262,-5.6e-4 a 1.0137782,1.0137782 0 0 0 -0.2133584,0.0227 0.58763034,0.58763034 0 0 0 -0.1484731,-0.0137 h -0.00707 l -0.00813,5.1e-4 h -0.0052 l -0.010489,9.7e-4 c -0.00349,0 -0.00707,7.3e-4 -0.01057,10e-4 -0.00349,5.1e-4 -0.00716,9e-4 -0.010652,0.001 l -0.00537,9e-4 c -0.00528,8.9e-4 -0.010652,0.002 -0.016262,0.003 q -0.00268,5.1e-4 -0.00537,10e-4 c -0.00707,0.002 -0.014148,0.003 -0.021141,0.006 -0.00349,9.8e-4 -0.00699,0.002 -0.010489,0.003 -0.00179,5.1e-4 -0.00349,0.001 -0.0052,0.002 l -0.0052,0.002 -0.00512,0.002 -0.0061,0.002 c -0.00309,10e-4 -0.0061,0.003 -0.00911,0.004 -0.0017,7.4e-4 -0.00342,0.002 -0.00504,0.002 -0.00163,8.9e-4 -0.00333,0.002 -0.00488,0.003 a 0.2256364,0.2256364 0 0 0 -0.050494,0.0356 l -0.00414,0.004 -0.00407,0.004 c -0.00139,10e-4 -0.00268,0.003 -0.00398,0.004 a 0.1936814,0.1936814 0 0 0 -0.014798,0.0183 c -0.0013,0.002 -0.00252,0.003 -0.00374,0.005 a 0.2170175,0.2170175 0 0 0 -0.013985,0.0237 c -0.00105,0.002 -0.00203,0.004 -0.00301,0.006 a 0.26588505,0.26588505 0 0 0 -0.016262,0.0427 q -0.00228,0.008 -0.00414,0.0163 c 0,0 -0.1721338,0.0759 -0.3149151,0.13091 -0.037972,0.0146 -0.073748,0.0279 -0.1036707,0.0379 -0.0087,0.003 -0.016831,0.006 -0.024393,0.008 a 0.21709881,0.21709881 0 0 1 -0.050819,0.0117 0.15993758,0.15993758 0 0 0 -0.024393,0.002 c -0.065617,0.0106 -0.1780696,0.0569 -0.1903478,0.10334 a 0.03000354,0.03000354 0 0 0 -8.132e-4,0.0114 c 0,0 0,5.7e-4 0,8.9e-4 0.00813,0.0569 -0.048786,0.0488 -0.048786,0.0488 0,0 -0.020327,0.15043 -0.048786,0.19108 -0.020571,0.0293 -0.034638,0.0946 -0.036427,0.14384 v 0 a 0.15944972,0.15944972 0 0 0 0.00358,0.0458 c 0,3.9e-4 0,8.1e-4 0,0.001 0.00325,0.0109 -0.00455,0.0406 -0.017807,0.0788 -0.014392,0.0419 -0.03537,0.0939 -0.055535,0.14302 -0.03041,0.0742 -0.059031,0.14148 -0.06082,0.15628 -7.291e-4,0.007 -0.00284,0.0184 -0.00577,0.0336 -0.011872,0.062 -0.038216,0.17994 -0.051226,0.22767 -0.00968,0.0356 -0.023742,0.0844 -0.033419,0.1179 0,9.8e-4 -5.665e-4,0.002 -8.133e-4,0.003 l 0.3645142,-0.004 v 0.007 h 0.00114 z"
       id="path1215" />
    <path
       style="opacity:0.1;stroke-width:0.00813104;stroke:#2b6cb0;stroke-opacity:1"
       inkscape:connector-curvature="0"
       d="m 2.9766344,296.02816 c 0,0 0.4634695,0.23986 0.6301561,0.2114 z"
       id="path1217" />
    <path
       style="opacity:0.1;stroke-width:0.00813104;stroke:#2b6cb0;stroke-opacity:1"
       inkscape:connector-curvature="0"
       d="m 3.9198356,295.93058 c 0,0 0.4512727,0.14636 0.6016971,0.16669 0.1504238,0.0203 -0.6016971,-0.16669 -0.6016971,-0.16669 z"
       id="path1219" />
    <path
       style="opacity:0.1;stroke-width:0.00813104"
       inkscape:connector-curvature="0"
       d="m 4.4203821,295.45963 c -0.2357998,0.0434 -0.6797547,0.0341 -0.8716477,0.0275 0.070334,-0.25206 0.4133012,-0.16636 0.4133012,-0.16636 0.4245215,-0.0847 0.4570458,0.0911 0.4583465,0.13887 z"
       id="path1221" />
    <path
       style="fill:#3182ce;stroke-width:0.00813104;fill-opacity:1"
       inkscape:connector-curvature="0"
       d="m 4.4203821,295.44337 c -0.2357998,0.0434 -0.6797547,0.0341 -0.8716477,0.0275 0.070334,-0.25207 0.4133012,-0.16637 0.4133012,-0.16637 0.4245215,-0.0847 0.4570458,0.0911 0.4583465,0.13888 z"
       id="path1223" />
    <path
       style="fill:#fbbebe;stroke-width:0.00813104"
       inkscape:connector-curvature="0"
       d="m 5.6720746,296.55464 c 0,0 0.2777563,-0.0427 0.2832041,0.0793 0.00545,0.12197 -0.1416427,0.20718 -0.1416427,0.20718 z"
       id="path1225" />
    <path
       style="opacity:0.1;stroke-width:0.00813104"
       inkscape:connector-curvature="0"
       d="m 4.2763814,295.16529 a 0.38215894,0.38215894 0 0 1 -0.036589,0.0141 c -0.087652,0.0303 -0.176037,0.0607 -0.2683246,0.0718 -0.092287,0.0111 -0.1891279,10e-4 -0.2696252,-0.0447 a 0.23393006,0.23393006 0 0 1 -0.024393,-0.0159 c -0.00894,-0.17888 -0.030491,-0.3537 -0.030491,-0.3537 0,0 0.7074004,-0.33337 0.6260903,-0.0691 -0.032362,0.10676 -0.021385,0.25669 0.00333,0.39744 z"
       id="path1227" />
    <path
       style="fill:#3f3d56;stroke-width:0.00813104"
       inkscape:connector-curvature="0"
       d="m 3.8473066,294.05451 a 0.07700096,0.07700096 0 0 1 -0.06765,-0.0142 l 0.016913,0.0235 a 0.06886992,0.06886992 0 0 1 -0.055129,-0.0183 0.27710589,0.27710589 0 0 0 0.0026,0.063 0.11806272,0.11806272 0 0 1 -0.077733,-0.0244 0.0359392,0.0359392 0 0 0 0.021466,0.035 0.11659913,0.11659913 0 0 0 -0.1268439,0.0871 l 0.042444,0.004 a 0.15018033,0.15018033 0 0 0 -0.084888,0.0518 c -0.01301,0.0163 -0.02293,0.0371 -0.017238,0.0569 0.00569,0.0198 0.033175,0.0325 0.048136,0.0184 a 0.22718129,0.22718129 0 0 0 -0.049599,0.1853 0.11765617,0.11765617 0 0 1 0.00374,0.0428 c -0.00268,0.0134 -0.011139,0.0251 -0.015368,0.0381 -0.00813,0.0237 -3.926e-4,0.0495 0.00683,0.0732 l 0.038134,0.12538 c 0.013823,0.0453 0.027564,0.0907 0.045615,0.13449 a 0.66739587,0.66739587 0 0 1 0.032524,0.0854 c 0.010245,0.0394 0.010652,0.0825 0.032524,0.11685 a 0.16205165,0.16205165 0 0 0 0.058381,0.0515 c 0.080416,0.046 0.1775821,0.0558 0.2696252,0.0447 0.092044,-0.0111 0.1803468,-0.0416 0.2679179,-0.0718 a 0.25206228,0.25206228 0 0 0 0.055616,-0.0244 c 0.060577,-0.0397 0.074074,-0.12083 0.085376,-0.1923 0.012604,-0.0797 0.029434,-0.15921 0.059275,-0.23418 0.017726,-0.0446 0.040655,-0.0899 0.036752,-0.13774 -0.00496,-0.0635 -0.05521,-0.11497 -0.06765,-0.17742 a 0.15448978,0.15448978 0 0 1 5.665e-4,-0.0632 0.14359419,0.14359419 0 0 0 0.00642,-0.0382 c -0.00138,-0.0262 -0.022848,-0.0463 -0.043013,-0.0632 q -0.065617,-0.0548 -0.135463,-0.10359 c -0.00236,-0.0163 0.019758,-0.0232 0.02976,-0.0361 0.014148,-0.0181 -5.048e-4,-0.0469 -0.021954,-0.0554 -0.021466,-0.008 -0.045534,-0.003 -0.067894,0.003 a 0.05358356,0.05358356 0 0 0 -0.093914,-0.0416 0.08293662,0.08293662 0 0 0 -0.068463,-0.0494 c -0.053909,-0.004 -0.054966,0.037 -0.089442,0.0597 -0.034476,0.0227 -0.062934,-0.007 -0.089441,-0.029 a 0.07545606,0.07545606 0 0 0 0.011058,0.0746 z"
       id="path1229" />
    <path
       style="fill:#3182ce;stroke-width:0.00813104;fill-opacity:1"
       inkscape:connector-curvature="0"
       d="m 5.8780339,296.79857 c 0,0 -0.00724,0.0172 -0.020571,0.0422 a 0.56104187,0.56104187 0 0 1 -0.07318,0.10709 l -0.00219,0.002 h -0.013172 l -0.4694861,0.004 h -0.011221 l -0.00139,-0.002 -0.091068,-0.10807 -0.034313,-0.0407 -0.00138,-0.002 -0.00293,-0.003 -0.00163,-0.002 -0.00211,-0.003 -0.066756,-0.0792 0.024393,-0.10164 0.04155,-0.17124 0.00105,-0.004 0.00813,-0.0325 0.00577,-0.0244 0.019352,-0.0795 0.066349,-0.27361 0.1179002,0.061 0.1243233,0.21954 0.066756,0.1179 h 0.03659 c 0.00691,0 0.022767,0.0133 0.038704,0.0287 0.00569,0.005 0.011384,0.0112 0.016262,0.0163 0.014474,0.015 0.025938,0.0278 0.025938,0.0278 0,0 0.059275,10e-4 0.075212,0.048 a 0.05691729,0.05691729 0 0 1 0.00203,0.007 0.32768097,0.32768097 0 0 0 0.020571,0.0533 c 0.010489,0.0228 0.023661,0.0488 0.036996,0.0747 0.0248,0.0476 0.050006,0.0929 0.059275,0.10928 l 0.00114,0.002 z"
       id="path1231" />
    <path
       style="opacity:0.1;stroke-width:0.00813104"
       inkscape:connector-curvature="0"
       d="m 5.1795779,296.43146 -8.133e-4,0.0116 v 8.2e-4 l -0.00139,0.0187 -0.010814,0.1505 -0.013091,0.18133 -0.00374,0.0511 -0.00813,0.10928 v 10e-4 l -0.8700216,0.008 -1.4277296,0.0155 v 0.007 h -0.00114 v -0.007 -0.002 l 0.00366,-0.11676 0.00699,-0.22816 0.00602,-0.19343 5.721e-4,-0.0193 a 0.08561987,0.08561987 0 0 1 0.092856,-0.0827 c 0.038379,0.003 0.088222,0.007 0.1478225,0.0115 l 0.024393,0.002 c 0.3441868,0.0239 0.9802781,0.0548 1.6221426,0.0163 0.013497,-7.3e-4 0.027076,-0.002 0.040655,-0.003 0.099524,-0.006 0.1989668,-0.0143 0.2974336,-0.0244 a 0.08561987,0.08561987 0 0 1 0.09432,0.0913 z"
       id="path1233" />
    <path
       style="fill:#3f3d56;stroke-width:0.00813104"
       inkscape:connector-curvature="0"
       d="m 2.8436107,296.98656 v -0.007 l 1.4279735,-0.0155 0.8700216,-0.008 h 0.00244 v -10e-4 l 0.00813,-0.10928 0.00349,-0.0488 0.013335,-0.18384 0.01049,-0.14554 v -0.004 a 0.08635166,0.08635166 0 0 0 -8.975e-4,-0.0201 0.00243931,0.00243931 0 0 0 0,-8.1e-4 0.08448152,0.08448152 0 0 0 -0.016262,-0.0377 0.08570118,0.08570118 0 0 0 -0.076594,-0.0325 c -0.098467,0.0101 -0.1979095,0.0181 -0.2974336,0.0244 -0.013579,9.8e-4 -0.027158,0.002 -0.040655,0.003 -0.6418645,0.0381 -1.2779558,0.007 -1.6221426,-0.0163 l -0.024393,-0.002 c -0.059601,-0.004 -0.1094438,-0.008 -0.1478225,-0.0115 a 0.08570118,0.08570118 0 0 0 -0.091393,0.0694 0.08944146,0.08944146 0 0 0 -0.00146,0.0133 l -0.00553,0.18019 -0.00756,0.22823 -0.00358,0.11677 v 0.002 0.007 z"
       id="path1235" />
    <path
       style="opacity:0.1;stroke-width:0.00813104"
       inkscape:connector-curvature="0"
       d="m 5.1820172,296.48846 -0.010002,0.12464 -0.01488,0.1858 -0.00374,0.0465 -0.00813,0.10416 -5.048e-4,0.005 v 10e-4 0 l -0.00122,0.012 8.974e-4,-0.012 h -0.00236 l -0.8700216,0.008 -1.4282175,0.0155 v -0.002 l 0.00398,-0.11676 0.00813,-0.22815 0.0052,-0.15165 a 0.05171342,0.05171342 0 0 1 0.024881,-0.0427 0.05081901,0.05081901 0 0 1 0.030736,-0.007 c 0.017075,0.001 0.038053,0.003 0.062527,0.005 0.039761,0.003 0.088791,0.006 0.1458712,0.01 0.1057033,0.007 0.2383209,0.0138 0.39029,0.0197 0.4228142,0.0163 0.993613,0.0217 1.5357913,-0.0258 0.024393,-0.002 0.049599,-0.004 0.074236,-0.007 a 0.05090032,0.05090032 0 0 1 0.028296,0.005 0.04195617,0.04195617 0 0 1 0.00699,0.004 0.04992459,0.04992459 0 0 1 0.016262,0.02 0.02894651,0.02894651 0 0 1 0.00203,0.005 0.05106294,0.05106294 0 0 1 0.00293,0.0211 z"
       id="path1237" />
    <path
       style="opacity:0.1;stroke-width:0.00813104"
       inkscape:connector-curvature="0"
       d="m 2.4237237,296.59977 v 0.0259 a 0.04984328,0.04984328 0 0 1 -0.028459,0.045 l -0.3260547,0.006 a 0.04976197,0.04976197 0 0 1 -0.029028,-0.0453 v -0.0244 z"
       id="path1239" />
    <polygon
       style="fill:#3f3d56"
       points="298.6,506.9 298.6,515.57 246.35,516.57 246.35,507.9 "
       id="polygon1241"
       transform="matrix(0.00813104,0,0,0.00813104,-1.3946156e-4,292.49392)" />
    <polygon
       style="opacity:0.1"
       points="298.6,506.9 298.6,515.57 246.35,516.57 246.35,507.9 "
       id="polygon1243"
       transform="matrix(0.00813104,0,0,0.00813104,-1.3946156e-4,292.49392)" />
    <polygon
       style="fill:#3f3d56"
       points="300.6,506.9 300.6,515.57 248.35,516.57 248.35,507.9 "
       id="polygon1245"
       transform="matrix(0.00813104,0,0,0.00813104,-1.3946156e-4,292.49392)" />
    <g
       style="opacity:0.1"
       id="g1265"
       transform="matrix(0.00813104,0,0,0.00813104,-1.3946156e-4,292.49392)">
      <path
         inkscape:connector-curvature="0"
         d="m 552.93,361.56 a 9.75,9.75 0 0 1 -1.89,-4.34 9.49,9.49 0 0 0 0.42,4.6 9,9 0 0 0 1.47,-0.26 z"
         transform="translate(-79.34,-172.91)"
         id="path1247" />
      <path
         inkscape:connector-curvature="0"
         d="m 540.23,368.2 a 35.12,35.12 0 0 1 -0.37,-3.7 c 0,1.23 0,2.47 0,3.71 z"
         transform="translate(-79.34,-172.91)"
         id="path1249" />
      <path
         inkscape:connector-curvature="0"
         d="m 621.73,401.57 a 18.34,18.34 0 0 1 0.36,-2.65 18,18 0 0 0 0.8,-4.69 6.16,6.16 0 0 0 -0.16,-1.06 c -0.17,0.92 -0.44,1.84 -0.64,2.75 a 19.14,19.14 0 0 0 -0.36,5.65 z"
         transform="translate(-79.34,-172.91)"
         id="path1251" />
      <path
         inkscape:connector-curvature="0"
         d="m 600.93,370.67 1.09,0.79 a 19.71,19.71 0 0 0 2.57,-2.22 3.67,3.67 0 0 0 0.38,-3.64 3,3 0 0 1 -0.38,0.64 c -1.23,1.58 -3.95,2.45 -3.66,4.43 z"
         transform="translate(-79.34,-172.91)"
         id="path1253" />
      <path
         inkscape:connector-curvature="0"
         d="m 518.76,380.29 a 12.32,12.32 0 0 0 -0.87,2.28 18.16,18.16 0 0 1 5,-1.89 z"
         transform="translate(-79.34,-172.91)"
         id="path1255" />
      <path
         inkscape:connector-curvature="0"
         d="m 532.55,369.41 a 14.83,14.83 0 0 1 -1.88,-1.23 4.25,4.25 0 0 0 0.09,1.18 11.86,11.86 0 0 1 1.79,0.05 z"
         transform="translate(-79.34,-172.91)"
         id="path1257" />
      <path
         inkscape:connector-curvature="0"
         d="m 630.32,428.33 c -0.41,4.85 -2.67,9.52 -4.5,14.12 -3.67,9.22 -5.74,19 -7.29,28.81 -1.39,8.79 -3,18.77 -10.5,23.64 a 30,30 0 0 1 -6.83,3 c -10.78,3.73 -21.65,7.47 -33,8.83 -11.35,1.36 -23.26,0.17 -33.16,-5.49 a 20,20 0 0 1 -7.18,-6.33 c -2.67,-4.23 -2.72,-9.53 -4,-14.37 a 82.21,82.21 0 0 0 -4,-10.52 c -2.21,-5.38 -3.91,-11 -5.6,-16.53 q -2.35,-7.71 -4.69,-15.43 a 28.81,28.81 0 0 1 -1.14,-4.75 c -0.39,2.56 0.37,5.24 1.14,7.75 q 2.34,7.73 4.69,15.43 c 1.69,5.57 3.39,11.15 5.6,16.53 a 82.21,82.21 0 0 1 4,10.52 c 1.26,4.84 1.31,10.14 4,14.37 a 20,20 0 0 0 7.18,6.33 c 9.9,5.66 21.84,6.85 33.16,5.49 11.32,-1.36 22.18,-5.1 33,-8.83 a 30,30 0 0 0 6.83,-3 c 7.45,-4.87 9.11,-14.85 10.5,-23.64 1.55,-9.81 3.62,-19.59 7.29,-28.81 2.18,-5.48 5,-11.05 4.52,-16.94 0,-0.06 -0.02,-0.12 -0.02,-0.18 z"
         transform="translate(-79.34,-172.91)"
         id="path1259" />
      <path
         inkscape:connector-curvature="0"
         d="m 510.63,424.46 c 0,0 0,-0.07 0,-0.11 a 14,14 0 0 0 -0.46,-5.25 26.59,26.59 0 0 1 -0.39,-3.32 27.35,27.35 0 0 0 0.39,6.32 c 0.16,0.78 0.34,1.57 0.46,2.36 z"
         transform="translate(-79.34,-172.91)"
         id="path1261" />
      <path
         inkscape:connector-curvature="0"
         d="m 513.68,400 a 27.74,27.74 0 0 1 2.61,-3.67 c -1.83,1.75 -5.21,0.19 -5.92,-2.24 a 5.83,5.83 0 0 0 0,3 4.39,4.39 0 0 0 3.31,2.91 z"
         transform="translate(-79.34,-172.91)"
         id="path1263" />
    </g>
    <path
       style="opacity:0.1;stroke-width:0.00813104"
       inkscape:connector-curvature="0"
       d="m 5.5623055,296.42658 c 0,0 0.025776,0.0935 0,0.17482 -0.025775,0.0813 0,-0.17482 0,-0.17482 z"
       id="path1267" />
    <path
       style="opacity:0.1;stroke-width:0.00813104"
       inkscape:connector-curvature="0"
       d="m 5.6720746,296.52196 c 0,0 0.010814,0.11871 -0.013579,0.13977 -0.024393,0.0211 0.013579,-0.13977 0.013579,-0.13977 z"
       id="path1269" />
    <line
       style="fill:none;stroke:#2b6cb0;stroke-width:0.01626208;stroke-miterlimit:10;stroke-opacity:1"
       x1="1.6178567"
       y1="295.28174"
       x2="2.444052"
       y2="295.27359"
       stroke-miterlimit="10"
       id="line1271" />
    <line
       style="fill:none;stroke:#2b6cb0;stroke-width:0.01626208;stroke-miterlimit:10;stroke-opacity:1"
       x1="1.6178567"
       y1="295.38312"
       x2="2.444052"
       y2="295.37506"
       stroke-miterlimit="10"
       id="line1273" />
    <line
       style="fill:none;stroke:#2b6cb0;stroke-width:0.01626208;stroke-miterlimit:10;stroke-opacity:1"
       x1="1.6178567"
       y1="295.48459"
       x2="2.444052"
       y2="295.47647"
       stroke-miterlimit="10"
       id="line1275" />
  </g>
</svg>
