<?xml version="1.0" encoding="UTF-8" standalone="no"?>
<!-- Created with Inkscape (http://www.inkscape.org/) -->

<svg
   xmlns:dc="http://purl.org/dc/elements/1.1/"
   xmlns:cc="http://creativecommons.org/ns#"
   xmlns:rdf="http://www.w3.org/1999/02/22-rdf-syntax-ns#"
   xmlns:svg="http://www.w3.org/2000/svg"
   xmlns="http://www.w3.org/2000/svg"
   xmlns:xlink="http://www.w3.org/1999/xlink"
   xmlns:sodipodi="http://sodipodi.sourceforge.net/DTD/sodipodi-0.dtd"
   xmlns:inkscape="http://www.inkscape.org/namespaces/inkscape"
   width="32"
   height="26.539"
   viewBox="0 0 8.4666665 7.0217772"
   version="1.1"
   id="svg1139"
   inkscape:version="0.92.4 (5da689c313, 2019-01-14)"
   sodipodi:docname="hello.svg">
  <defs
     id="defs1133">
    <linearGradient
       inkscape:collect="always"
       xlink:href="#fbde297d-ab9b-4106-ad77-f89466c8290f"
       id="linearGradient1258"
       gradientUnits="userSpaceOnUse"
       x1="963.63171"
       y1="410.81482"
       x2="963.63171"
       y2="349.80222" />
    <linearGradient
       gradientUnits="userSpaceOnUse"
       y2="349.80222"
       x2="963.63171"
       y1="410.81482"
       x1="963.63171"
       id="fbde297d-ab9b-4106-ad77-f89466c8290f">
      <stop
         id="stop1080"
         stop-opacity="0.25"
         stop-color="gray"
         offset="0" />
      <stop
         id="stop1082"
         stop-opacity="0.12"
         stop-color="gray"
         offset="0.53514" />
      <stop
         id="stop1084"
         stop-opacity="0.1"
         stop-color="gray"
         offset="1" />
    </linearGradient>
    <linearGradient
       xlink:href="#fbde297d-ab9b-4106-ad77-f89466c8290f"
       y2="75.89238"
       x2="514.09485"
       y1="824.1076"
       x1="514.09485"
       id="b55aa966-9953-40ef-b933-2af4fb1d4bf9" />
    <linearGradient
       xlink:href="#fbde297d-ab9b-4106-ad77-f89466c8290f"
       y2="484.07513"
       x2="725.67908"
       y1="487.07513"
       x1="725.67908"
       id="a395c18f-205e-4149-866b-9e6fd62c4f5f"
       gradientTransform="matrix(0.00781248,0,0,0.00781248,-0.28656801,289.50003)" />
    <linearGradient
       xlink:href="#fbde297d-ab9b-4106-ad77-f89466c8290f"
       y2="183.07697"
       x2="647.53882"
       y1="341.17819"
       x1="647.53882"
       id="bfa05cfc-d7ec-49e0-8f8e-7dcb2e2661be" />
  </defs>
  <sodipodi:namedview
     id="base"
     pagecolor="#ffffff"
     bordercolor="#666666"
     borderopacity="1.0"
     inkscape:pageopacity="0.0"
     inkscape:pageshadow="2"
     inkscape:zoom="22.990026"
     inkscape:cx="14.206481"
     inkscape:cy="13.220572"
     inkscape:document-units="mm"
     inkscape:current-layer="layer1"
     showgrid="false"
     units="px"
     inkscape:window-width="1366"
     inkscape:window-height="715"
     inkscape:window-x="-8"
     inkscape:window-y="-8"
     inkscape:window-maximized="1" />
  <metadata
     id="metadata1136">
    <rdf:RDF>
      <cc:Work
         rdf:about="">
        <dc:format>image/svg+xml</dc:format>
        <dc:type
           rdf:resource="http://purl.org/dc/dcmitype/StillImage" />
        <dc:title />
      </cc:Work>
    </rdf:RDF>
  </metadata>
  <g
     inkscape:label="Layer 1"
     inkscape:groupmode="layer"
     id="layer1"
     transform="translate(0,-289.97821)">
    <path
       inkscape:connector-curvature="0"
       id="path1552"
       d="m 3.4928561,296.44705 c 0,0 5.0198948,-1.8331 0.3381946,-5.13118 -4.6817016,-3.29808 -3.75688072,3.80617 -3.75688072,3.80617 0,0 0.21828407,2.98536 3.41868612,1.32501 z"
       style="fill:#e6e6e6;stroke:none;stroke-width:0.01170602px;stroke-linecap:butt;stroke-linejoin:miter;stroke-opacity:1" />
    <path
       style="fill:#f2f2f2;stroke:none;stroke-width:0.01397309px;stroke-linecap:butt;stroke-linejoin:miter;stroke-opacity:1"
       d="m 7.9180755,292.86686 c 0,0 -2.0299631,-6.10525 -6.0542678,-0.56409 -4.0243047,5.54116 4.3957789,4.64343 4.3957789,4.64343 0,0 3.5336709,-0.17197 1.6584889,-4.07934 z"
       id="path1550"
       inkscape:connector-curvature="0" />
    <path
       style="fill:#2a4365;stroke-width:0.00781248;fill-opacity:1"
       inkscape:connector-curvature="0"
       d="m 1.9562102,294.79523 c 0,0.35343 -0.2101125,0.47685 -0.4692797,0.47685 -0.00603,0 -0.012035,-6e-5 -0.018004,-2.1e-4 -0.012003,-2.7e-4 -0.023908,-7.9e-4 -0.035649,-0.002 -0.2339224,-0.0165 -0.4156589,-0.14631 -0.4156589,-0.47498 0,-0.34012 0.4345762,-0.76932 0.4673553,-0.80118 l 6.34e-5,-3e-5 c 0.00124,-10e-4 0.00189,-0.002 0.00189,-0.002 0,0 0.4692796,0.44961 0.4692796,0.80307 z"
       id="path1094" />
    <path
       style="fill:#f2f2f2;stroke-width:0.00781248"
       inkscape:connector-curvature="0"
       d="m 1.4698071,295.218 0.1716584,-0.23983 -0.1720823,0.26615 -4.542e-4,0.0275 c -0.012003,-2.6e-4 -0.023908,-7.8e-4 -0.035649,-0.002 l 0.018493,-0.35359 -1.32e-4,-0.003 3.274e-4,-5.3e-4 0.00173,-0.0334 -0.1725061,-0.26683 0.1730281,0.24178 4.225e-4,0.007 0.013992,-0.26716 -0.1476853,-0.2757 0.1494791,0.22877 0.014547,-0.55386 6.33e-5,-0.002 v 0.002 l -0.00241,0.43676 0.1470006,-0.17316 -0.1476203,0.21077 -0.00388,0.2392 0.1372809,-0.22955 -0.1378674,0.26478 -0.00215,0.13298 0.1992839,-0.31954 -0.200034,0.36595 z"
       id="path1096" />
    <g
       style="opacity:0.7"
       id="g1100"
       transform="matrix(0.00781248,0,0,0.00781248,0.88376811,290.09294)">
      <path
         style="fill:url(#linearGradient1258)"
         inkscape:connector-curvature="0"
         d="m 983.78769,360.69733 v -10.89511 h -54.47554 v 50.38988 a 10.62275,10.62275 0 0 0 10.62273,10.62273 H 973.165 a 10.62275,10.62275 0 0 0 10.62273,-10.62273 v -11.16749 a 14.16364,14.16364 0 0 0 0,-28.32728 z m 0,22.87973 v -17.43217 a 8.716085,8.716085 0 1 1 0,17.43217 z"
         transform="translate(-149.80335,-75.89238)"
         id="path1098" />
    </g>
    <path
       style="fill:#6c63ff;stroke-width:0.00781248"
       inkscape:connector-curvature="0"
       d="m 7.3855636,292.33129 a 0.10103103,0.10103103 0 1 0 0.1010314,0.10104 0.10103103,0.10103103 0 0 0 -0.1010314,-0.10104 z m 0,0.16321 a 0.06217307,0.06217307 0 1 1 0.062173,-0.0622 0.06217307,0.06217307 0 0 1 -0.062173,0.0622 z"
       id="path1102" />
    <path
       style="opacity:1;stroke-width:0.00781248;fill:#2b6cb0;fill-opacity:1"
       inkscape:connector-curvature="0"
       d="m 7.3855636,292.33129 a 0.10103103,0.10103103 0 1 0 0.1010314,0.10104 0.10103103,0.10103103 0 0 0 -0.1010314,-0.10104 z m 0,0.16321 a 0.06217307,0.06217307 0 1 1 0.062173,-0.0622 0.06217307,0.06217307 0 0 1 -0.062173,0.0622 z"
       id="path1104" />
    <path
       style="fill:#3182ce;stroke-width:0.00781248;fill-opacity:1"
       inkscape:connector-curvature="0"
       d="m 6.996982,292.25358 h 0.3885816 v 0.35904 a 0.07617171,0.07617171 0 0 1 -0.076171,0.0762 H 7.0731539 a 0.07617171,0.07617171 0 0 1 -0.076172,-0.0762 z"
       id="path1106" />
    <path
       style="opacity:1;stroke-width:0.00781248;fill:#2b6cb0;fill-opacity:1"
       inkscape:connector-curvature="0"
       d="m 7.3156192,292.25358 v 0.35944 a 0.07577327,0.07577327 0 0 1 -0.075774,0.0758 h 0.038858 a 0.07577327,0.07577327 0 0 0 0.075773,-0.0758 v -0.35944 z"
       id="path1108" />
    <path
       style="fill:#eeeeee;stroke-width:0.00781248"
       inkscape:connector-curvature="0"
       d="m 7.0736635,291.96388 a 0.02268925,0.02268925 0 0 0 -0.01716,0.009 c -0.0051,0.009 0.00414,0.0197 0.012569,0.026 0.015572,0.0117 0.031985,0.0232 0.04257,0.0396 0.010585,0.0164 0.013911,0.0392 0.00234,0.0549 -0.015108,0.0205 -0.051154,0.0249 -0.054642,0.0501 -0.00224,0.0162 0.011756,0.03 0.025937,0.0381 0.035002,0.02 0.080124,0.0254 0.1054771,0.0568 0.010488,-0.0216 0.033947,-0.034 0.05733,-0.0394 0.023383,-0.005 0.047679,-0.005 0.071387,-0.009 a 0.02468291,0.02468291 0 0 0 0.019697,-0.0104 c 0.00663,-0.0134 -0.012261,-0.0296 -0.00574,-0.0431 0.00496,-0.0103 0.019538,-0.009 0.030182,-0.0136 0.017332,-0.007 0.024479,-0.029 0.019559,-0.0469 -0.00492,-0.0179 -0.018814,-0.0319 -0.033425,-0.0434 -0.039377,-0.0309 -0.086726,-0.0491 -0.1346159,-0.0622 -0.022273,-0.006 -0.04842,-0.0156 -0.071555,-0.0166 -0.022333,-8.9e-4 -0.047803,0.006 -0.069907,0.01 z"
       id="path1110" />
    <line
       style="fill:#b3b3b3;stroke:#b3b3b3;stroke-width:0.06249986;stroke-miterlimit:10"
       x1="4.3463311"
       y1="292.78055"
       x2="3.5338335"
       y2="295.3118"
       stroke-miterlimit="10"
       id="line1112" />
    <g
       style="opacity:0.7"
       id="g1116"
       transform="matrix(0.00781248,0,0,0.00781248,0.88376811,290.09294)">
      <path
         style="fill:url(#b55aa966-9953-40ef-b933-2af4fb1d4bf9)"
         inkscape:connector-curvature="0"
         d="m 673.59135,780.39881 c -12.7927,0.74179 -24.18945,11.45861 -24.18945,11.45861 l -5.51071,-13.67007 -0.45,0.14631 c 2.69215,-11.78463 57.46619,-254.71944 2.63435,-275.66276 -42.13333,-16.093 -86.8238,-36.008 -121.83818,-35.25969 v -57.38942 h 49.08874 v -2.04536 h 38.8619 c 7.44972,-5.32121 -3.375,-8.98043 -15.47324,-11.26729 a 11.05637,11.05637 0 0 0 1.29657,-1.82921 L 660.2541,283.20921 c 0,0 14.31755,-23.52169 5.11341,-34.77119 -9.20414,-11.2495 -22.499,28.6351 -22.499,28.6351 l -51.13411,73.63311 c 0,0 -51.60868,-53.79049 -84.43918,-80.541 a 57.46883,57.46883 0 0 0 -12.22144,-9.23685 c -5.993,-4.05458 -10.52937,-6.15544 -12.76636,-5.33156 -0.0231,0.008 -0.0411,0.0223 -0.0639,0.0313 a 57.28712,57.28712 0 0 0 -15.27637,-2.07664 h -4.09073 v -8.39106 a 65.60833,65.60833 0 0 0 40.5264,-38.40126 73.69511,73.69511 0 0 0 5.83991,-64.168 4.25825,4.25825 0 0 0 1.72234,-0.59629 c 1.85211,-1.19228 2.03532,-3.80048 1.85667,-5.9959 A 45.55549,45.55549 0 0 0 489.699,100.38013 c -5.18151,-2.83335 -11.1158,-4.78552 -14.93662,-9.28853 -3.28315,-3.86932 -4.66281,-9.281 -8.63562,-12.43809 -4.71992,-3.75067 -11.538,-3.10588 -17.32967,-1.43228 a 63.05826,63.05826 0 0 0 -18.08788,8.53556 c -6.2648,4.29072 -11.91858,9.80312 -19.13085,12.17806 -5.12464,1.68751 -10.68242,1.65386 -15.83958,3.2392 a 26.60455,26.60455 0 0 0 -17.11668,16.69405 34.75071,34.75071 0 0 0 -1.4643,13.04831 73.21928,73.21928 0 0 0 -7.346,16.71183 c -0.38581,0.20842 -0.77394,0.41235 -1.1562,0.62726 l 1.12125,-0.50423 a 73.61747,73.61747 0 0 0 20.742,75.089 65.55221,65.55221 0 0 0 31.4504,22.32011 v 10.15122 a 77.33331,77.33331 0 0 0 -25.09984,10.27975 l -0.0109,-0.0135 c 0,0 -0.65272,0.40392 -1.7701,1.15532 q -0.16806,0.11283 -0.33531,0.22653 c -7.56756,5.13613 -32.9257,23.90319 -32.0693,44.18275 q -0.05,1.16924 0.0133,2.34628 a 77.97484,77.97484 0 0 0 -2.08874,17.88327 v 147.16947 a 72.27509,72.27509 0 0 0 15.51138,44.8263 c -21.34143,4.78327 -34.94234,12.0177 -34.94234,20.114 a 6.55,6.55 0 0 1 0,2.04536 c 0,14.40269 43.03978,26.07839 96.13211,26.07839 6.41929,0 12.68959,-0.17215 18.75665,-0.49773 l 59.98988,48.56379 -96.13212,154.425 c 0,0 -31.70323,24.5444 -7.15889,32.72585 24.54434,8.18145 74.65583,14.31755 74.65583,14.31755 0,0 8.18145,-14.31755 -3.06805,-20.45365 -11.2495,-6.1361 -26.58973,-3.068 -26.58973,-3.068 l 2.04536,-12.27219 c 0,0 166.69718,-143.17549 131.926,-192.26423 -6.65218,-9.39127 -13.30454,-19.08147 -20.014,-28.62049 l 26.24156,2.39148 5.97143,224.757 0.74691,-0.24318 c -1.49894,4.41531 -12.10128,37.73967 11.39931,32.10025 25.15783,-6.037 70.93278,-27.33159 70.93278,-27.33159 0,0 -0.6284,-16.47832 -13.42105,-15.73659 z M 573.32612,393.65888 524.23738,379.40731 v -41.99595 l 53.35375,56.63708 c -2.62313,-0.26304 -4.26501,-0.38956 -4.26501,-0.38956 z"
         transform="translate(-149.80335,-75.89238)"
         id="path1114" />
    </g>
    <circle
       cx="3.1666465"
       cy="290.86649"
       r="0.56249875"
       id="circle1118"
       style="stroke-width:0.00781248" />
    <path
       style="fill:#2b6cb0;fill-opacity:1;stroke-width:0.00781248"
       inkscape:connector-curvature="0"
       d="m 3.8072702,292.15556 0.4292735,0.45569 a 0.083867,0.083867 0 0 0 0.1343016,-0.0167 l 0.4754852,-0.85307 -0.1328123,-0.0469 -0.3906242,0.5625 c 0,0 -0.733336,-0.76435 -0.8359357,-0.72656 -0.1025995,0.0378 0.3203119,0.625 0.3203119,0.625 z"
       id="path1120" />
    <line
       style="fill:#b3b3b3;stroke:#b3b3b3;stroke-width:0.03906241;stroke-miterlimit:10"
       x1="2.9869592"
       y1="293.73367"
       x2="2.3541484"
       y2="295.3743"
       stroke-miterlimit="10"
       id="line1122" />
    <line
       style="fill:#b3b3b3;stroke:#b3b3b3;stroke-width:0.03906241;stroke-miterlimit:10"
       x1="3.2994585"
       y1="293.73367"
       x2="3.9322698"
       y2="295.3743"
       stroke-miterlimit="10"
       id="line1124" />
    <ellipse
       style="fill:#b84733;stroke-width:0.00781248"
       cx="3.143209"
       cy="293.74539"
       rx="0.73437339"
       ry="0.19921832"
       id="ellipse1126" />
    <ellipse
       style="fill:#f55f44;stroke-width:0.00781248"
       cx="3.143209"
       cy="293.72977"
       rx="0.73437339"
       ry="0.19921832"
       id="ellipse1128" />
    <line
       style="fill:none;stroke:#bdbdbd;stroke-width:0.03906241;stroke-miterlimit:10"
       x1="2.8341954"
       y1="294.09415"
       x2="3.5270858"
       y2="294.30765"
       stroke-miterlimit="10"
       id="line1130" />
    <line
       style="fill:#b3b3b3;stroke:#b3b3b3;stroke-width:0.03906241;stroke-miterlimit:10"
       x1="3.4522228"
       y1="294.09415"
       x2="2.7593329"
       y2="294.30765"
       stroke-miterlimit="10"
       id="line1132" />
    <path
       style="fill:#3182ce;stroke-width:0.00781248;fill-opacity:1"
       inkscape:connector-curvature="0"
       d="m 3.1517611,291.51494 h 0.21801 a 0.43749904,0.43749904 0 0 1 0.4374991,0.43749 v 1.15625 H 2.5572729 v -0.99926 a 0.59448815,0.59448815 0 0 1 0.5944882,-0.59448 z"
       id="path1134" />
    <path
       style="fill:#2c5282;stroke-width:0.00781248;fill-opacity:1"
       inkscape:connector-curvature="0"
       d="m 2.5572729,293.10868 h 1.2499973 v 0.67969 h -0.695311 a 0.5546863,0.5546863 0 0 1 -0.5546863,-0.55469 z"
       id="path1136" />
    <path
       style="opacity:0.05;stroke-width:0.00781248"
       inkscape:connector-curvature="0"
       d="m 2.5741553,291.98399 0.7643655,0.72626 H 4.182269 v -0.10938 l -0.726561,-0.21094 -0.6215127,-0.7675 c 0,0 -0.2822201,0.17437 -0.26004,0.36156 z"
       id="path1138" />
    <path
       style="fill:#4299e1;fill-opacity:1;stroke-width:0.00781248"
       inkscape:connector-curvature="0"
       d="m 2.5741553,291.96837 0.7643655,0.72625 H 4.182269 v -0.10937 l -0.726561,-0.21094 -0.6215127,-0.7675 c 0,0 -0.2822201,0.17436 -0.26004,0.36156 z"
       id="path1140" />
    <path
       style="fill:#fda57d;stroke-width:0.00781248"
       inkscape:connector-curvature="0"
       d="m 4.1822693,292.58525 c 0,0 0.4062492,0.0312 0.2968744,0.10937 H 4.1822693 Z"
       id="path1142" />
    <path
       style="fill:#fda57d;stroke-width:0.00781248"
       inkscape:connector-curvature="0"
       d="m 4.7135182,291.69462 c 0,0 0.101562,-0.30468 0.1718745,-0.21875 0.070312,0.0859 -0.039062,0.26563 -0.039062,0.26563 z"
       id="path1144" />
    <polygon
       style="opacity:0.05"
       points="214.209,386.016 214.209,390.683 374.209,391.016 374.209,386.016 "
       id="polygon1146"
       transform="matrix(0.00781248,0,0,0.00781248,0.88376811,290.09294)" />
    <path
       style="fill:#2c5282;stroke-width:0.00781248;fill-opacity:1"
       inkscape:connector-curvature="0"
       d="m 3.5296315,293.83168 0.8408363,0.0766 0.045617,1.71697 0.3010237,-0.098 c 0,0 0.4502034,-1.9453 0.020909,-2.10927 -0.429295,-0.16397 -0.8933439,-0.37989 -1.1704047,-0.20392 -0.2770608,0.17596 -0.037981,0.61759 -0.037981,0.61759 z"
       id="path1148" />
    <path
       style="opacity:1;stroke-width:0.00781248;fill:#2a4365;fill-opacity:1"
       inkscape:connector-curvature="0"
       d="m 3.5807082,293.30399 c 0,0 0.4609364,0.23438 0.5234363,0.5"
       id="path1150" />
    <path
       style="fill:#2c5282;stroke-width:0.00781248;fill-opacity:1"
       inkscape:connector-curvature="0"
       d="m 3.0885294,293.78056 0.6562407,0.53124 -0.7343734,1.17969 0.3046869,0.0859 c 0,0 1.2734347,-1.09375 1.0078103,-1.46875 -0.2656244,-0.375 -0.5312489,-0.8125 -0.8593731,-0.82031 -0.3281243,-0.008 -0.3749914,0.49219 -0.3749914,0.49219 z"
       id="path1152" />
    <polygon
       style="opacity:1;fill:#2c5282;fill-opacity:1"
       points="440.209,277.016 414.209,251.016 435.209,287.016 "
       id="polygon1154"
       transform="matrix(0.00781248,0,0,0.00781248,0.88376811,290.09294)" />
    <path
       style="fill:#333333;stroke-width:0.00781248"
       inkscape:connector-curvature="0"
       d="m 3.0103969,295.49149 c 0,0 -0.242187,0.1875 -0.054687,0.25 0.1874996,0.0625 0.5703113,0.10937 0.5703113,0.10937 0,0 0.0625,-0.10937 -0.023437,-0.15625 -0.085937,-0.0469 -0.2031245,-0.0234 -0.2031245,-0.0234 l 0.015625,-0.0937 z"
       id="path1156" />
    <path
       style="fill:#333333;stroke-width:0.00781248"
       inkscape:connector-curvature="0"
       d="m 4.4230695,295.61973 c 0,0 -0.1063826,0.29503 0.085803,0.24891 0.1921857,-0.0461 0.5418703,-0.20879 0.5418703,-0.20879 0,0 -0.0048,-0.12588 -0.1025265,-0.12022 -0.097726,0.006 -0.1847881,0.0875 -0.1847881,0.0875 l -0.042098,-0.10443 z"
       id="path1158" />
    <rect
       style="fill:#fda57d;stroke-width:0.00781248"
       x="3.0260217"
       y="291.24149"
       width="0.31249931"
       height="0.46874899"
       rx="0.15624951"
       id="rect1160" />
    <path
       style="opacity:0.05;stroke-width:0.00781248"
       inkscape:connector-curvature="0"
       d="m 3.1822715,291.25712 a 0.15624966,0.15624966 0 0 0 -0.1562496,0.15625 v 0.0531 a 0.50004383,0.50004383 0 0 0 0.3124993,0 v -0.0531 a 0.15624966,0.15624966 0 0 0 -0.1562497,-0.15625 z"
       id="path1162" />
    <circle
       style="fill:#fda57d;stroke-width:0.00781248"
       cx="3.1822712"
       cy="290.97586"
       r="0.4999989"
       id="circle1164" />
    <path
       style="opacity:0.05;stroke-width:0.00781248"
       inkscape:connector-curvature="0"
       d="m 2.6822726,290.95319 c 0,0 0.1249998,0.0322 0.1953121,-0.10986 0.070312,-0.14207 0.1249997,-0.21956 0.4140616,-0.13561 0.2890619,0.084 0.3472117,0.0942 0.3611055,0.0148 0.00949,-0.0543 -0.093292,-0.18601 -0.159341,-0.26402 -0.032222,-0.0381 -0.084802,-0.0608 -0.140998,-0.0608 H 3.0260219 l -0.1953121,0.0904 -0.1484372,0.12915 -0.03125,0.17436 z"
       id="path1166" />
    <path
       inkscape:connector-curvature="0"
       d="m 2.6822726,290.93756 c 0,0 0.1249998,0.0322 0.1953121,-0.10985 0.070312,-0.14207 0.1249997,-0.21957 0.4140616,-0.13562 0.2890619,0.084 0.3472117,0.0942 0.3611055,0.0148 0.00949,-0.0542 -0.093292,-0.18601 -0.159341,-0.26402 -0.032222,-0.038 -0.084802,-0.0607 -0.140998,-0.0607 H 3.0260219 l -0.1953121,0.0904 -0.1484372,0.12916 -0.03125,0.17435 z"
       id="path1168"
       style="stroke-width:0.00781248" />
    <ellipse
       style="fill:#fda57d;stroke-width:0.00781248"
       cx="2.7330537"
       cy="290.9368"
       rx="0.050781142"
       ry="0.10156228"
       id="ellipse1170" />
    <path
       inkscape:connector-curvature="0"
       d="m 2.6967593,290.67548 c -0.011588,-0.0654 -0.022972,-0.13408 -0.00187,-0.19706 a 0.20323776,0.20323776 0 0 1 0.1307576,-0.12753 c 0.039397,-0.0121 0.081853,-0.0118 0.1210016,-0.0247 0.055096,-0.0181 0.098287,-0.0602 0.1461446,-0.093 a 0.4817034,0.4817034 0 0 1 0.1381773,-0.0652 c 0.044244,-0.0128 0.096329,-0.0177 0.1323847,0.0109 0.03035,0.0241 0.040889,0.0655 0.06597,0.095 0.029188,0.0344 0.074521,0.0493 0.1141037,0.071 a 0.34800643,0.34800643 0 0 1 0.1766403,0.2721 c 0.00136,0.0168 -3.13e-5,0.0367 -0.014184,0.0458 a 0.05064833,0.05064833 0 0 1 -0.028494,0.005 c -0.1998327,-0.003 -0.3999054,-0.006 -0.5989151,-0.0241 -0.061866,-0.006 -0.1238544,-0.0129 -0.185938,-0.0106 a 0.60823767,0.60823767 0 0 0 -0.2737852,0.0772"
       id="path1172"
       style="stroke-width:0.00781248" />
    <rect
       style="fill:#3182ce;stroke-width:0.00781248;fill-opacity:1"
       x="0.88376808"
       y="295.13406"
       width="1.2037903"
       height="0.5122512"
       rx="0.25612536"
       id="rect1174" />
    <path
       style="fill:url(#a395c18f-205e-4149-866b-9e6fd62c4f5f);stroke-width:0.00781248"
       inkscape:connector-curvature="0"
       d="m 5.3827874,293.3053 a 0.01172576,0.01172576 0 0 0 0,-0.0234 0.01172576,0.01172576 0 0 0 0,0.0234 z"
       id="path1176" />
    <line
       style="fill:#cccccc;stroke:#b3b3b3;stroke-width:0.06249986;stroke-miterlimit:10"
       x1="7.1022801"
       y1="292.78055"
       x2="7.9147787"
       y2="295.67191"
       stroke-miterlimit="10"
       id="line1178" />
    <rect
       style="fill:#b3b3b3;stroke-width:0.00781248"
       x="3.5305367"
       y="292.69589"
       width="4.3875389"
       height="0.17097588"
       id="rect1180" />
    <rect
       style="fill:#535461;stroke-width:0.00781248"
       x="4.6119561"
       y="292.65555"
       width="0.71874845"
       height="0.10156228"
       rx="0.05078106"
       id="rect1182" />
    <g
       style="opacity:0.7"
       id="g1186"
       transform="matrix(0.00781248,0,0,0.00781248,0.88376811,290.09294)">
      <rect
         style="fill:url(#bfa05cfc-d7ec-49e0-8f8e-7dcb2e2661be)"
         x="533.20911"
         y="183.07697"
         width="228.65948"
         height="158.10123"
         rx="28.219561"
         id="rect1184" />
    </g>
    <rect
       style="fill:#3e3f49;stroke-width:0.00781248"
       x="5.0813036"
       y="291.54602"
       width="1.6922542"
       height="1.2123742"
       rx="0.20964837"
       id="rect1188" />
    <rect
       style="fill:#535461;stroke-width:0.00781248"
       x="5.1047416"
       y="291.54602"
       width="1.6922542"
       height="1.2123742"
       rx="0.20964837"
       id="rect1190" />
    <circle
       style="fill:#e0e0e0;stroke-width:0.00781248"
       cx="6.029922"
       cy="292.14383"
       r="0.054687385"
       id="circle1192" />
  </g>
</svg>
